<?xml version="1.0" standalone="no"?>
<!DOCTYPE svg PUBLIC "-//W3C//DTD SVG 20010904//EN"
 "http://www.w3.org/TR/2001/REC-SVG-20010904/DTD/svg10.dtd">
<svg version="1.0" xmlns="http://www.w3.org/2000/svg"
 width="512.000000pt" height="512.000000pt" viewBox="0 0 512.000000 512.000000"
 preserveAspectRatio="xMidYMid meet">

<g transform="translate(0.000000,512.000000) scale(0.100000,-0.100000)"
fill="#000000" stroke="none">
<path d="M1850 4946 c-134 -88 -270 -265 -311 -404 -11 -36 -10 -45 3 -58 21
-21 45 -8 59 34 45 140 162 292 288 372 59 38 70 49 68 70 -3 39 -34 35 -107
-14z"/>
<path d="M2559 4940 c-56 -9 -154 -43 -176 -62 -7 -5 -59 -11 -115 -13 -115
-2 -193 -25 -294 -86 -117 -70 -225 -224 -253 -357 -24 -115 -6 -245 52 -387
l25 -59 -30 -22 c-91 -68 -120 -191 -67 -295 24 -49 74 -95 124 -116 l43 -17
6 -66 c13 -126 70 -250 174 -376 l53 -65 -37 -42 c-21 -23 -42 -45 -48 -49 -6
-3 -108 -31 -226 -62 -260 -67 -333 -100 -434 -196 -82 -78 -138 -166 -167
-262 -19 -63 -23 -68 -50 -68 -95 0 -199 -111 -199 -214 0 -23 27 -347 61
-721 59 -659 62 -682 88 -738 l28 -57 -130 0 c-210 0 -232 -21 -232 -220 0
-137 8 -162 62 -197 26 -17 121 -18 1743 -18 1622 0 1717 1 1743 18 44 29 58
61 64 145 9 125 -3 188 -42 231 l-33 36 -145 3 -145 3 23 42 c13 23 26 58 29
77 11 59 126 1336 126 1389 0 75 -42 148 -110 189 -31 18 -68 32 -86 32 -31 0
-33 3 -53 67 -29 98 -85 185 -168 264 -100 95 -186 133 -443 199 -113 28 -210
55 -216 58 -6 4 -28 26 -48 50 l-38 42 44 53 c62 73 105 139 132 200 26 57 56
180 56 224 0 24 7 31 44 46 177 73 204 320 46 417 -27 17 -38 30 -33 40 21 49
54 207 59 280 20 294 -185 562 -491 640 -88 22 -239 32 -316 20z m-96 -824
c145 -91 432 -204 640 -252 l79 -18 -4 -221 c-4 -210 -5 -223 -30 -287 -35
-87 -87 -168 -157 -241 -69 -74 -184 -160 -259 -195 -51 -24 -68 -27 -172 -27
-105 0 -120 2 -174 28 -124 58 -275 193 -355 317 -23 35 -53 100 -67 144 -22
71 -26 105 -31 263 l-6 181 64 30 c90 41 168 103 284 224 55 58 101 106 101
107 1 0 40 -23 87 -53z m858 -223 c61 -52 75 -127 37 -203 -20 -40 -76 -90
-99 -90 -13 0 -11 252 2 289 13 38 19 38 60 4z m-1471 -25 c16 -34 20 -66 20
-155 0 -62 -3 -113 -7 -113 -5 0 -23 9 -41 20 -58 36 -91 113 -78 185 7 35 59
105 78 105 5 0 18 -19 28 -42z m378 -951 c37 -24 113 -69 170 -101 56 -31 102
-59 102 -61 0 -6 -203 -175 -211 -175 -4 0 -53 70 -109 156 l-101 157 32 33
c18 19 37 34 42 34 5 0 39 -19 75 -43z m781 9 l32 -33 -102 -157 c-56 -86
-104 -156 -108 -156 -7 0 -157 123 -195 160 -18 17 -15 20 85 76 57 32 133 77
169 100 36 24 70 43 76 44 5 0 25 -15 43 -34z m-866 -256 c78 -119 124 -180
136 -180 9 0 75 49 146 110 72 60 132 110 135 110 3 0 64 -50 135 -110 72 -60
138 -110 147 -110 11 0 58 63 135 180 65 99 124 180 131 180 45 0 417 -106
481 -138 126 -61 244 -199 280 -329 l10 -33 -1319 0 -1319 0 8 28 c41 139 155
272 294 344 39 19 425 126 462 127 15 1 48 -43 138 -179z m1847 -396 c42 -9
105 -70 118 -114 7 -27 -6 -207 -54 -730 -35 -381 -68 -706 -74 -721 -15 -34
-57 -75 -93 -88 -40 -15 -2614 -15 -2654 0 -36 13 -78 54 -93 88 -18 44 -140
1406 -129 1445 13 48 46 86 93 107 39 18 100 19 1447 19 774 0 1421 -3 1439
-6z m286 -1748 c16 -12 19 -29 22 -125 4 -107 3 -111 -22 -136 l-25 -25 -1694
0 c-1445 0 -1696 2 -1713 14 -16 13 -19 29 -22 129 -3 106 -2 117 17 136 l21
21 1698 0 c1450 0 1701 -2 1718 -14z"/>
<path d="M2439 1695 c-207 -66 -274 -265 -133 -395 55 -51 109 -75 192 -89
198 -32 391 90 392 248 0 90 -62 170 -170 220 -69 31 -208 39 -281 16z m277
-89 c66 -36 96 -76 102 -138 4 -40 0 -55 -21 -88 -74 -111 -282 -141 -412 -59
-64 40 -87 81 -82 144 4 61 32 103 89 135 62 35 86 40 183 37 77 -2 98 -7 141
-31z"/>
<path d="M1510 4400 c-15 -29 -9 -71 13 -84 25 -15 49 18 45 64 -2 27 -8 36
-25 38 -14 2 -26 -4 -33 -18z"/>
<path d="M4321 1996 c-7 -8 -11 -34 -9 -58 3 -38 6 -43 28 -43 21 0 27 7 34
38 15 57 -22 100 -53 63z"/>
<path d="M4303 1778 c-12 -16 -58 -512 -48 -527 11 -19 45 -12 54 12 12 29 52
492 45 512 -7 18 -38 20 -51 3z"/>
</g>
</svg>
