<?xml version="1.0" standalone="no"?>
<!DOCTYPE svg PUBLIC "-//W3C//DTD SVG 20010904//EN"
 "http://www.w3.org/TR/2001/REC-SVG-20010904/DTD/svg10.dtd">
<svg version="1.0" xmlns="http://www.w3.org/2000/svg"
 width="512.000000pt" height="512.000000pt" viewBox="0 0 512.000000 512.000000"
 preserveAspectRatio="xMidYMid meet">

<g transform="translate(0.000000,512.000000) scale(0.100000,-0.100000)"
fill="#000000" stroke="none">
<path d="M4382 4888 c-18 -18 -15 -36 7 -48 11 -5 66 -10 123 -10 l103 0 -190
-190 c-104 -104 -193 -190 -197 -190 -5 0 -130 74 -279 165 -148 91 -278 165
-289 165 -11 0 -127 -112 -292 -281 -274 -282 -303 -320 -252 -327 15 -2 85
63 286 267 l266 269 277 -169 c153 -93 283 -169 289 -169 6 1 106 93 221 205
l210 204 5 -117 c5 -117 5 -117 30 -117 l25 0 5 165 c3 91 1 171 -4 178 -12
17 -327 17 -344 0z"/>
<path d="M3682 4288 c-9 -9 -12 -175 -12 -685 l0 -673 -90 0 -90 0 0 388 c0
288 -3 391 -12 400 -17 17 -449 17 -466 0 -9 -9 -12 -111 -12 -400 l0 -387
-67 -3 c-65 -3 -68 -4 -68 -28 0 -24 2 -25 95 -31 123 -8 1776 -8 1900 0 93 6
95 7 95 31 0 24 -3 25 -67 28 l-68 3 -2 462 -3 462 -235 0 -235 0 -5 -460 -5
-460 -87 -3 -88 -3 0 666 c0 440 -4 673 -10 686 -10 18 -23 19 -233 19 -160 0
-226 -3 -235 -12z m408 -701 l0 -644 -97 -6 c-54 -4 -133 -7 -175 -7 l-78 0 0
650 0 650 175 0 175 0 0 -643z m540 -222 l0 -425 -110 0 -110 0 0 425 0 425
110 0 110 0 0 -425z m-1210 -70 l0 -365 -175 0 -175 0 0 365 0 365 175 0 175
0 0 -365z"/>
<path d="M1342 3930 c-17 -7 -22 -16 -20 -32 3 -25 32 -34 75 -23 19 4 24 11
21 33 -3 30 -34 39 -76 22z"/>
<path d="M1097 3820 c-134 -89 -256 -242 -303 -377 -17 -48 -17 -54 -3 -68 24
-25 45 -8 68 53 45 124 169 273 288 346 34 21 64 44 67 52 5 13 -18 44 -34 44
-5 0 -42 -22 -83 -50z"/>
<path d="M1830 3823 c-41 -7 -122 -34 -165 -56 -31 -15 -63 -20 -140 -22 -77
-2 -117 -9 -175 -29 -234 -81 -399 -305 -400 -543 0 -68 30 -255 59 -371 l20
-76 -43 -40 c-62 -59 -80 -98 -80 -176 0 -115 67 -219 168 -261 50 -20 54 -25
60 -62 17 -104 101 -254 199 -355 l52 -52 -40 -39 c-39 -37 -50 -41 -330 -116
-159 -43 -321 -93 -360 -110 -141 -65 -251 -171 -319 -310 -66 -135 -69 -151
-73 -561 -4 -332 -3 -373 11 -387 15 -15 148 -16 1549 -11 843 3 1538 7 1545
10 9 3 12 85 12 367 0 331 -2 371 -20 443 -51 202 -174 356 -355 444 -54 26
-173 65 -360 116 -271 74 -281 78 -322 117 l-42 40 68 73 c78 83 151 214 172
307 14 58 14 58 76 88 142 68 206 241 136 370 -16 30 -44 63 -65 77 -21 13
-38 30 -38 36 0 6 7 63 16 126 8 63 16 185 17 270 1 145 -1 160 -27 235 -35
101 -81 177 -148 245 -105 105 -246 178 -398 206 -71 13 -205 16 -260 7z m-5
-858 c143 -68 404 -144 496 -145 33 0 65 -65 85 -170 11 -62 19 -80 44 -101
l30 -25 0 -120 c0 -148 -18 -236 -69 -339 -74 -150 -230 -303 -388 -382 -137
-68 -314 -55 -444 33 -199 134 -326 291 -375 464 -9 33 -18 118 -21 208 l-6
153 33 27 c29 25 33 34 40 107 9 84 33 168 53 182 7 5 44 19 84 31 80 25 173
88 223 152 l31 40 47 -36 c26 -20 88 -55 137 -79z m-765 -344 c0 -10 11 -29
24 -42 23 -23 24 -33 28 -147 3 -139 1 -143 -64 -84 -50 45 -77 102 -78 160 0
49 11 74 48 114 27 29 42 28 42 -1z m1593 -1 c50 -59 57 -131 20 -205 -20 -40
-61 -83 -95 -101 l-28 -15 0 125 c0 96 3 125 14 129 8 3 22 26 31 51 10 25 21
46 25 46 5 0 19 -13 33 -30z m-385 -921 l23 -26 -99 -152 -98 -151 -95 80
c-52 44 -95 85 -97 90 -2 6 47 34 110 64 62 29 137 72 167 95 30 23 57 38 61
34 3 -5 16 -20 28 -34z m-758 -18 c39 -27 105 -63 147 -80 43 -18 86 -38 97
-46 20 -15 33 -1 -114 -128 -35 -31 -67 -53 -71 -49 -23 25 -189 284 -189 294
0 14 39 58 52 58 5 0 40 -22 78 -49z m1135 -126 c353 -100 374 -109 492 -226
73 -73 126 -167 153 -275 18 -69 20 -111 20 -406 l0 -328 -255 0 -255 0 -2
288 -3 287 -24 3 c-13 2 -28 -2 -32 -10 -5 -7 -9 -138 -9 -290 l0 -278 -849 0
c-466 0 -876 -3 -910 -6 l-61 -7 0 284 c0 156 -4 290 -9 297 -4 8 -19 12 -32
10 l-24 -3 -5 -290 -5 -290 -252 -3 -253 -2 0 328 c0 366 7 422 71 548 55 111
176 223 291 273 45 19 591 171 616 171 7 0 60 -73 118 -162 58 -90 113 -168
121 -175 19 -15 39 -6 95 45 38 35 41 35 54 17 8 -10 14 -31 14 -45 0 -14 -27
-160 -60 -324 -33 -164 -56 -304 -52 -311 15 -25 221 -195 237 -195 19 0 245
188 245 204 0 6 -29 150 -64 320 -52 255 -61 314 -52 338 6 15 14 28 18 28 4
0 28 -18 54 -41 29 -25 54 -39 68 -37 15 2 54 53 134 175 63 94 119 170 125
168 7 -2 134 -39 282 -80z m-763 -99 c36 -31 37 -34 26 -64 -12 -31 -14 -32
-74 -32 -61 0 -62 1 -73 33 -11 30 -10 33 26 64 21 18 43 33 48 32 6 0 27 -15
47 -33z m61 -458 c32 -156 57 -286 57 -290 0 -3 -37 -38 -82 -77 l-82 -70 -45
39 c-25 21 -63 53 -84 72 l-39 33 57 288 58 287 52 0 51 0 57 -282z"/>
<path d="M3473 1293 c-27 -9 -7 -96 25 -108 17 -6 42 12 42 32 0 21 -27 70
-42 75 -7 3 -19 3 -25 1z"/>
<path d="M3527 1033 c-9 -8 -7 -444 2 -533 6 -61 8 -65 31 -65 l25 0 3 280 c1
154 0 290 -3 303 -5 21 -42 31 -58 15z"/>
</g>
</svg>
