<?xml version="1.0" standalone="no"?>
<!DOCTYPE svg PUBLIC "-//W3C//DTD SVG 20010904//EN"
 "http://www.w3.org/TR/2001/REC-SVG-20010904/DTD/svg10.dtd">
<svg version="1.0" xmlns="http://www.w3.org/2000/svg"
 width="512.000000pt" height="512.000000pt" viewBox="0 0 512.000000 512.000000"
 preserveAspectRatio="xMidYMid meet">

<g transform="translate(0.000000,512.000000) scale(0.100000,-0.100000)"
fill="#000000" stroke="none">
<path d="M3128 4930 c-52 -16 -98 -52 -126 -98 l-27 -47 0 -540 c0 -593 -3
-564 61 -629 39 -39 76 -56 135 -63 l49 -6 0 -162 c0 -131 3 -165 15 -175 12
-10 65 19 302 164 l288 176 466 0 c533 0 531 0 599 77 22 25 43 62 47 82 5 20
8 268 8 551 0 481 -1 517 -19 552 -24 50 -86 104 -133 117 -46 13 -1623 14
-1665 1z m1667 -80 c22 -11 49 -34 60 -52 19 -32 20 -53 20 -555 0 -511 0
-522 -21 -549 -11 -15 -33 -37 -48 -48 -27 -20 -42 -21 -519 -26 l-492 -5
-255 -158 -255 -158 -5 158 -5 158 -73 6 c-82 6 -117 25 -144 80 -16 31 -18
78 -18 539 0 505 0 506 23 550 43 85 -15 80 891 80 776 0 801 -1 841 -20z"/>
<path d="M3446 4497 c-10 -7 -16 -22 -14 -33 3 -18 18 -19 517 -22 505 -2 541
0 541 29 0 4 -7 15 -16 23 -14 14 -74 16 -513 16 -395 0 -501 -3 -515 -13z"/>
<path d="M3437 4043 c-14 -13 -7 -43 12 -53 13 -6 193 -10 515 -10 444 0 496
2 511 16 9 9 14 23 11 31 -3 8 -6 17 -6 19 0 7 -1036 4 -1043 -3z"/>
<path d="M1795 4124 c-38 -8 -99 -29 -135 -46 -58 -28 -75 -31 -175 -33 -186
-4 -308 -57 -446 -195 -71 -70 -93 -100 -127 -170 -50 -107 -66 -174 -66 -275
1 -116 54 -395 108 -567 l15 -47 -45 -26 c-124 -73 -140 -257 -32 -380 40 -45
102 -85 133 -85 8 0 19 -10 24 -22 5 -13 21 -56 36 -96 36 -97 112 -210 202
-304 l75 -77 -16 -49 -17 -49 -94 -7 c-315 -22 -621 -187 -816 -439 -136 -176
-219 -389 -239 -617 -13 -150 -13 -416 0 -441 11 -19 39 -19 1634 -19 1430 0
1625 2 1636 15 21 26 7 498 -18 605 -118 502 -529 855 -1044 898 l-83 7 -14
40 -14 41 68 64 c37 36 88 92 114 125 54 70 124 206 142 274 11 42 17 51 51
66 92 40 163 154 162 260 0 72 -19 114 -80 171 l-43 41 14 54 c23 84 43 239
55 410 12 175 4 277 -30 381 -75 225 -287 414 -539 479 -105 28 -302 34 -396
13z m-118 -861 c63 -48 243 -133 368 -173 55 -18 161 -44 235 -59 l135 -27 27
-54 c15 -30 32 -86 38 -125 13 -84 24 -109 57 -126 l25 -13 -4 -181 c-4 -160
-7 -188 -30 -258 -60 -180 -198 -347 -397 -481 -168 -112 -366 -127 -534 -41
-122 63 -275 198 -360 317 -106 149 -137 262 -137 505 0 143 2 173 14 173 31
0 53 47 59 127 7 85 43 201 67 214 8 4 47 17 85 29 87 26 157 72 232 150 32
33 61 60 65 60 4 0 29 -16 55 -37z m-663 -539 c14 -5 16 -31 16 -180 0 -96 -3
-174 -7 -174 -21 0 -75 43 -97 77 -66 104 -52 209 36 263 38 23 32 22 52 14z
m1688 -41 c32 -33 48 -73 48 -116 0 -46 -42 -128 -81 -161 l-34 -29 -3 154
c-1 84 0 159 2 166 9 22 41 15 68 -14z m-1061 -1052 c77 -27 223 -38 295 -23
79 17 154 48 219 91 60 40 60 40 72 18 7 -12 12 -25 13 -30 0 -4 -95 -70 -211
-148 l-211 -140 -27 17 c-228 149 -399 269 -396 278 3 6 9 23 14 38 l10 27 79
-53 c43 -29 108 -63 143 -75z m-209 -246 c92 -220 109 -254 130 -255 4 0 62
41 128 91 67 50 127 88 133 86 7 -3 63 -44 126 -91 63 -47 120 -86 126 -86 20
0 28 15 131 263 l99 237 60 0 c124 -1 299 -47 428 -111 201 -102 377 -279 481
-486 87 -174 116 -323 116 -600 l0 -183 -250 0 -250 0 -2 238 -3 237 -30 0
-30 0 -3 -238 -2 -237 -1005 0 -1005 0 -2 238 -3 237 -24 3 c-13 2 -28 -2 -32
-10 -5 -7 -9 -115 -9 -240 l0 -228 -251 0 -252 0 6 227 c6 237 14 295 60 428
103 299 339 543 634 655 111 42 243 69 326 67 l68 -2 101 -240z m171 73 c81
-54 147 -100 147 -103 0 -6 -172 -136 -176 -133 -2 3 -129 304 -142 337 -7 18
-14 22 171 -101z m532 -60 c-37 -90 -71 -166 -74 -170 -8 -9 -177 118 -172
129 5 11 305 211 310 207 2 -2 -27 -76 -64 -166z"/>
<path d="M4980 3515 c-19 -20 -64 -51 -100 -68 -63 -31 -67 -32 -240 -37 -158
-5 -175 -7 -178 -23 -8 -39 14 -47 137 -47 156 0 244 14 316 50 81 39 148 101
143 132 -5 37 -38 34 -78 -7z"/>
<path d="M4281 3391 c-22 -40 42 -68 85 -37 28 21 7 50 -39 54 -27 2 -38 -2
-46 -17z"/>
<path d="M480 1612 c-104 -83 -203 -190 -277 -298 -57 -85 -64 -117 -26 -122
17 -3 31 11 64 60 91 136 198 248 327 344 59 43 68 77 22 81 -18 2 -49 -16
-110 -65z"/>
<path d="M92 1107 c-23 -28 -31 -64 -18 -83 18 -24 44 -12 61 28 20 50 -13 92
-43 55z"/>
</g>
</svg>
