<?xml version="1.0" standalone="no"?>
<!DOCTYPE svg PUBLIC "-//W3C//DTD SVG 20010904//EN"
 "http://www.w3.org/TR/2001/REC-SVG-20010904/DTD/svg10.dtd">
<svg version="1.0" xmlns="http://www.w3.org/2000/svg"
 width="512.000000pt" height="512.000000pt" viewBox="0 0 512.000000 512.000000"
 preserveAspectRatio="xMidYMid meet">

<g transform="translate(0.000000,512.000000) scale(0.100000,-0.100000)"
fill="#000000" stroke="none">
<path d="M2315 4862 c-39 -10 -102 -33 -140 -52 -67 -32 -75 -34 -195 -36
-145 -2 -208 -16 -325 -74 -103 -51 -179 -112 -254 -206 -116 -143 -165 -281
-165 -464 0 -139 39 -346 119 -635 5 -15 -1 -23 -23 -33 -39 -17 -97 -76 -118
-121 -29 -58 -30 -155 -4 -225 31 -81 115 -167 187 -192 51 -18 53 -20 69 -74
44 -154 163 -341 299 -468 l76 -71 -30 -63 c-19 -40 -51 -83 -88 -119 l-58
-56 -345 -92 c-371 -98 -454 -130 -566 -215 -175 -132 -290 -315 -335 -531
-17 -80 -19 -139 -19 -517 0 -412 1 -428 19 -438 25 -13 4088 -14 4145 0 48
11 85 37 108 77 16 27 18 71 18 512 1 480 0 482 -22 522 -37 67 -77 79 -256
79 l-152 0 0 61 c0 114 -42 159 -152 159 -60 0 -66 2 -118 46 -134 111 -213
142 -628 253 l-334 88 -58 64 c-37 40 -65 82 -75 111 l-16 47 43 38 c64 56
135 131 187 198 58 75 146 249 162 319 11 52 13 54 65 76 36 14 70 40 103 76
138 150 117 366 -44 459 -17 10 -17 16 3 135 30 177 42 326 43 502 1 183 -17
264 -86 405 -101 204 -320 375 -570 443 -114 31 -369 38 -470 12z m-95 -1001
c157 -110 490 -229 740 -265 l85 -12 27 -49 c15 -28 36 -96 48 -155 25 -122
36 -144 86 -162 l37 -13 -6 -170 c-6 -191 -27 -286 -92 -414 -121 -242 -429
-505 -643 -550 -76 -16 -214 -14 -285 5 -134 34 -294 142 -443 296 -100 104
-150 175 -199 281 -58 127 -67 173 -72 390 -5 175 -3 197 11 197 9 0 30 13 47
28 29 26 32 35 39 113 9 94 22 151 52 220 19 45 21 47 85 63 132 32 245 104
342 216 38 45 45 50 61 38 9 -7 46 -33 80 -57z m-788 -796 c2 -102 1 -185 -3
-185 -22 0 -105 68 -129 106 -72 114 -53 246 43 304 l30 19 28 -30 28 -30 3
-184z m1986 191 c64 -73 63 -177 -1 -273 -28 -42 -87 -93 -107 -93 -4 0 -5 78
-2 173 4 147 7 176 23 199 11 14 19 31 19 37 0 18 33 -3 68 -43z m-1271 -1231
c57 -19 106 -28 184 -32 165 -9 279 23 427 119 34 22 64 39 66 37 2 -2 7 -14
10 -26 6 -20 -16 -35 -239 -168 l-245 -146 -238 142 c-130 78 -239 143 -240
145 -2 1 1 18 8 38 l11 35 89 -58 c50 -33 123 -71 167 -86z m-91 -121 c126
-75 230 -137 231 -138 1 -1 -61 -57 -139 -125 -77 -67 -144 -119 -147 -114 -4
4 -67 99 -141 211 l-133 203 48 49 c27 28 50 50 51 50 1 0 105 -61 230 -136z
m866 89 c26 -26 48 -51 48 -55 0 -4 -61 -100 -135 -213 l-136 -207 -57 48
c-127 107 -222 198 -215 205 9 8 435 267 443 268 2 1 26 -20 52 -46z m-1107
-310 c139 -215 167 -253 184 -253 5 0 44 29 86 65 42 36 78 65 81 65 3 0 13
-19 23 -43 l19 -43 -70 -404 c-38 -222 -67 -409 -64 -415 6 -18 264 -215 279
-215 13 0 271 191 281 209 3 4 -26 193 -65 419 l-70 412 21 40 21 41 80 -67
c48 -40 85 -64 94 -60 8 3 83 109 166 236 83 126 154 230 158 230 22 0 649
-173 697 -193 33 -13 89 -43 125 -65 l64 -42 -128 0 c-193 0 -228 -23 -237
-154 l-5 -71 -167 -5 c-181 -5 -194 -9 -242 -74 -21 -27 -21 -38 -21 -514 0
-268 4 -499 9 -515 l8 -27 -1336 0 -1336 0 0 408 c0 374 2 414 20 491 61 255
215 444 453 557 63 29 671 202 717 203 9 0 74 -90 155 -216z m607 -18 l58 -54
-20 -45 -19 -46 -86 0 -85 0 -23 46 -22 46 60 54 c33 29 65 53 70 53 6 0 36
-24 67 -54z m1748 -153 c17 -14 21 -26 18 -62 l-3 -45 -42 63 c-39 59 -40 62
-18 62 12 0 33 -8 45 -18z m-102 -59 l51 -68 -142 -6 c-78 -4 -188 -7 -244 -8
l-103 -1 0 63 c0 36 5 68 12 75 8 8 66 12 193 12 l181 0 52 -67z m-1638 -7 c0
-2 29 -173 65 -381 35 -208 63 -381 60 -384 -2 -4 -48 -41 -102 -83 l-99 -76
-84 65 c-47 36 -94 71 -104 79 -19 13 -18 22 44 386 34 205 65 379 67 386 4 8
29 12 79 12 41 0 74 -2 74 -4z m2165 -171 c24 -23 25 -29 25 -164 l0 -139 -27
-6 c-70 -13 -174 -28 -176 -25 -1 2 -9 18 -17 34 -15 29 -19 30 -89 33 -86 3
-111 -11 -111 -63 0 -32 -1 -33 -56 -40 -73 -9 -395 -9 -468 0 -54 7 -56 8
-56 38 0 52 -23 67 -103 67 -75 0 -107 -15 -107 -52 0 -23 -11 -22 -187 7
l-33 6 0 125 c0 130 10 171 47 193 12 7 248 10 676 11 l658 0 24 -25z m-1045
-390 l0 -65 -35 0 -35 0 0 65 0 65 35 0 35 0 0 -65z m788 -2 l3 -63 -36 0 -35
0 0 66 0 65 33 -3 c32 -3 32 -3 35 -65z m-1020 -4 l92 -12 0 -40 c0 -62 20
-77 103 -77 81 0 107 15 107 63 l0 29 63 -7 c79 -10 373 -10 455 0 l62 7 0
-28 c0 -49 24 -64 106 -64 64 0 75 3 88 22 9 12 16 39 16 59 l0 36 105 14 105
14 0 -297 0 -297 -24 -28 -24 -28 -661 0 -661 0 -27 28 -28 27 -3 301 c-3 286
-2 300 15 296 10 -3 60 -11 111 -18z"/>
<path d="M3512 4487 c-8 -9 -2 -36 24 -100 43 -106 62 -192 70 -319 7 -99 15
-115 50 -101 15 5 16 21 11 122 -6 131 -31 239 -79 343 -31 68 -52 84 -76 55z"/>
<path d="M3604 3836 c-3 -8 -4 -27 -2 -43 4 -40 44 -45 58 -7 15 38 4 64 -26
64 -14 0 -27 -6 -30 -14z"/>
<path d="M602 1811 c-151 -110 -289 -310 -355 -516 -38 -118 -41 -139 -22
-155 28 -23 47 0 70 86 53 193 125 314 274 463 90 90 112 117 104 129 -15 25
-27 24 -71 -7z"/>
<path d="M202 1028 c-7 -7 -12 -31 -12 -55 0 -51 27 -74 54 -47 16 15 21 69
10 98 -7 19 -35 21 -52 4z"/>
</g>
</svg>
