<svg width="192" height="600" viewBox="0 0 192 600" fill="none" xmlns="http://www.w3.org/2000/svg">
<mask id="mask0" mask-type="alpha" maskUnits="userSpaceOnUse" x="0" y="0" width="192" height="600">
<rect width="192" height="600" fill="url(#paint0_linear)"/>
</mask>
<g mask="url(#mask0)">
<line x1="-34.7139" y1="252.409" x2="218.695" y2="-0.99983" stroke="#404040"/>
<line x1="-33.855" y1="276.462" x2="219.554" y2="23.0527" stroke="#404040"/>
<line x1="-32.9961" y1="300.514" x2="220.413" y2="47.105" stroke="#404040"/>
<line x1="-32.1372" y1="324.567" x2="221.272" y2="71.1574" stroke="#404040"/>
<line x1="-31.2784" y1="348.619" x2="222.131" y2="95.2098" stroke="#404040"/>
<line x1="-30.419" y1="372.671" x2="222.99" y2="119.262" stroke="#404040"/>
<line x1="-29.5601" y1="396.724" x2="223.849" y2="143.315" stroke="#404040"/>
<line x1="-28.7012" y1="420.776" x2="224.708" y2="167.367" stroke="#404040"/>
<line x1="-27.8418" y1="444.829" x2="225.567" y2="191.419" stroke="#404040"/>
<line x1="-26.9829" y1="468.881" x2="226.426" y2="215.472" stroke="#404040"/>
<line x1="-26.1241" y1="492.933" x2="227.285" y2="239.524" stroke="#404040"/>
<line x1="-25.2652" y1="516.986" x2="228.144" y2="263.577" stroke="#404040"/>
<line x1="-24.4058" y1="541.038" x2="229.003" y2="287.629" stroke="#404040"/>
<line x1="-23.5469" y1="565.091" x2="229.862" y2="311.681" stroke="#404040"/>
<line x1="-22.688" y1="589.143" x2="230.721" y2="335.734" stroke="#404040"/>
<line x1="-21.8287" y1="613.196" x2="231.581" y2="359.786" stroke="#404040"/>
<line x1="-20.9698" y1="637.248" x2="232.439" y2="383.839" stroke="#404040"/>
<line x1="-20.1109" y1="661.3" x2="233.298" y2="407.891" stroke="#404040"/>
<line x1="-19.252" y1="685.353" x2="234.157" y2="431.943" stroke="#404040"/>
<line x1="-18.3931" y1="709.405" x2="235.016" y2="455.996" stroke="#404040"/>
<line x1="-17.5337" y1="733.457" x2="235.875" y2="480.048" stroke="#404040"/>
<line x1="-16.6748" y1="757.51" x2="236.734" y2="504.101" stroke="#404040"/>
<line x1="-15.816" y1="781.562" x2="237.593" y2="528.153" stroke="#404040"/>
<line x1="-14.9571" y1="805.615" x2="238.452" y2="552.205" stroke="#404040"/>
<line x1="-14.0977" y1="829.667" x2="239.312" y2="576.258" stroke="#404040"/>
<line x1="-13.2388" y1="853.719" x2="240.17" y2="600.31" stroke="#404040"/>
<line x1="-12.3799" y1="877.772" x2="241.029" y2="624.363" stroke="#404040"/>
<line x1="-11.5205" y1="901.824" x2="241.889" y2="648.415" stroke="#404040"/>
<line x1="-10.6617" y1="925.877" x2="242.748" y2="672.467" stroke="#404040"/>
<line x1="-9.80277" y1="949.929" x2="243.606" y2="696.52" stroke="#404040"/>
<line x1="-8.9434" y1="973.981" x2="244.466" y2="720.572" stroke="#404040"/>
</g>
<defs>
<linearGradient id="paint0_linear" x1="182.643" y1="217.53" x2="298.521" y2="377.782" gradientUnits="userSpaceOnUse">
<stop/>
<stop offset="1" stop-opacity="0"/>
</linearGradient>
</defs>
</svg>
