<svg width="883" height="1083" viewBox="0 0 883 1083" fill="none" xmlns="http://www.w3.org/2000/svg">
<mask id="mask0" mask-type="alpha" maskUnits="userSpaceOnUse" x="0" y="0" width="883" height="1083">
<rect width="883" height="1082.39" transform="matrix(-1 0 0 1 883 0)" fill="url(#paint0_linear)"/>
</mask>
<g mask="url(#mask0)">
<line x1="926.601" y1="1820.51" x2="-82.2134" y2="811.695" stroke="#4578FC" stroke-width="2"/>
<line x1="926.601" y1="1849.51" x2="-82.2134" y2="840.695" stroke="#4578FC" stroke-width="2"/>
<line x1="926.601" y1="1878.51" x2="-82.2134" y2="869.695" stroke="#4578FC" stroke-width="2"/>
<line x1="926.601" y1="1907.51" x2="-82.2134" y2="898.695" stroke="#4578FC" stroke-width="2"/>
<line x1="926.601" y1="1936.51" x2="-82.2134" y2="927.695" stroke="#4578FC" stroke-width="2"/>
<line x1="926.601" y1="1965.51" x2="-82.2134" y2="956.695" stroke="#4578FC" stroke-width="2"/>
<line x1="926.601" y1="1994.51" x2="-82.2134" y2="985.695" stroke="#4578FC" stroke-width="2"/>
<line x1="926.601" y1="2023.51" x2="-82.2134" y2="1014.7" stroke="#4578FC" stroke-width="2"/>
<line x1="926.601" y1="1794.31" x2="-82.2134" y2="785.492" stroke="#4578FC" stroke-width="2"/>
<line x1="926.601" y1="1768.1" x2="-82.2134" y2="759.289" stroke="#4578FC" stroke-width="2"/>
<line x1="926.601" y1="1741.9" x2="-82.2134" y2="733.086" stroke="#4578FC" stroke-width="2"/>
<line x1="926.601" y1="1715.7" x2="-82.2134" y2="706.883" stroke="#4578FC" stroke-width="2"/>
<line x1="926.601" y1="1689.49" x2="-82.2134" y2="680.68" stroke="#4578FC" stroke-width="2"/>
<line x1="926.601" y1="1663.29" x2="-82.2134" y2="654.477" stroke="#4578FC" stroke-width="2"/>
<line x1="926.601" y1="1637.09" x2="-82.2134" y2="628.274" stroke="#4578FC" stroke-width="2"/>
<line x1="926.601" y1="1610.89" x2="-82.2134" y2="602.071" stroke="#4578FC" stroke-width="2"/>
<line x1="926.601" y1="1584.68" x2="-82.2134" y2="575.868" stroke="#4578FC" stroke-width="2"/>
<line x1="926.601" y1="1558.48" x2="-82.2134" y2="549.665" stroke="#4578FC" stroke-width="2"/>
<line x1="926.601" y1="1532.28" x2="-82.2134" y2="523.461" stroke="#4578FC" stroke-width="2"/>
<line x1="926.601" y1="1506.07" x2="-82.2134" y2="497.258" stroke="#4578FC" stroke-width="2"/>
<line x1="926.601" y1="1479.87" x2="-82.2134" y2="471.055" stroke="#4578FC" stroke-width="2"/>
<line x1="926.601" y1="1453.67" x2="-82.2134" y2="444.852" stroke="#4578FC" stroke-width="2"/>
<line x1="926.601" y1="1427.46" x2="-82.2134" y2="418.649" stroke="#4578FC" stroke-width="2"/>
<line x1="926.601" y1="1401.26" x2="-82.2134" y2="392.446" stroke="#4578FC" stroke-width="2"/>
<line x1="926.601" y1="1375.06" x2="-82.2134" y2="366.243" stroke="#4578FC" stroke-width="2"/>
<line x1="926.601" y1="1348.85" x2="-82.2134" y2="340.04" stroke="#4578FC" stroke-width="2"/>
<line x1="926.601" y1="1322.65" x2="-82.2134" y2="313.837" stroke="#4578FC" stroke-width="2"/>
<line x1="926.601" y1="1296.45" x2="-82.2134" y2="287.634" stroke="#4578FC" stroke-width="2"/>
<line x1="926.601" y1="1270.25" x2="-82.2134" y2="261.431" stroke="#4578FC" stroke-width="2"/>
<line x1="926.601" y1="1244.04" x2="-82.2134" y2="235.228" stroke="#4578FC" stroke-width="2"/>
<line x1="926.601" y1="1217.84" x2="-82.2134" y2="209.024" stroke="#4578FC" stroke-width="2"/>
<line x1="926.601" y1="1191.64" x2="-82.2134" y2="182.821" stroke="#4578FC" stroke-width="2"/>
<line x1="926.601" y1="1165.43" x2="-82.2134" y2="156.618" stroke="#4578FC" stroke-width="2"/>
<line x1="926.601" y1="1139.23" x2="-82.2134" y2="130.415" stroke="#4578FC" stroke-width="2"/>
<line x1="926.601" y1="1113.03" x2="-82.2134" y2="104.212" stroke="#4578FC" stroke-width="2"/>
<line x1="926.601" y1="1086.82" x2="-82.2134" y2="78.009" stroke="#4578FC" stroke-width="2"/>
<line x1="926.601" y1="1060.62" x2="-82.2134" y2="51.8059" stroke="#4578FC" stroke-width="2"/>
<line x1="926.601" y1="1034.42" x2="-82.2134" y2="25.6028" stroke="#4578FC" stroke-width="2"/>
<line x1="926.601" y1="1008.21" x2="-82.2134" y2="-0.600332" stroke="#4578FC" stroke-width="2"/>
<line x1="926.601" y1="982.011" x2="-82.2134" y2="-26.8034" stroke="#4578FC" stroke-width="2"/>
<line x1="926.601" y1="955.808" x2="-82.2134" y2="-53.0065" stroke="#4578FC" stroke-width="2"/>
<line x1="926.601" y1="929.605" x2="-82.2134" y2="-79.2096" stroke="#4578FC" stroke-width="2"/>
<line x1="926.601" y1="903.402" x2="-82.2134" y2="-105.413" stroke="#4578FC" stroke-width="2"/>
<line x1="926.601" y1="877.199" x2="-82.2134" y2="-131.616" stroke="#4578FC" stroke-width="2"/>
<line x1="926.601" y1="850.996" x2="-82.2134" y2="-157.819" stroke="#4578FC" stroke-width="2"/>
<line x1="926.601" y1="824.793" x2="-82.2134" y2="-184.022" stroke="#4578FC" stroke-width="2"/>
<line x1="926.601" y1="798.59" x2="-82.2134" y2="-210.225" stroke="#4578FC" stroke-width="2"/>
<line x1="926.601" y1="772.386" x2="-82.2134" y2="-236.428" stroke="#4578FC" stroke-width="2"/>
<line x1="926.601" y1="746.183" x2="-82.2134" y2="-262.631" stroke="#4578FC" stroke-width="2"/>
<line x1="926.601" y1="719.98" x2="-82.2134" y2="-288.834" stroke="#4578FC" stroke-width="2"/>
<line x1="926.601" y1="693.777" x2="-82.2134" y2="-315.037" stroke="#4578FC" stroke-width="2"/>
<line x1="926.601" y1="667.574" x2="-82.2134" y2="-341.24" stroke="#4578FC" stroke-width="2"/>
<line x1="926.601" y1="641.371" x2="-82.2134" y2="-367.443" stroke="#4578FC" stroke-width="2"/>
<line x1="926.601" y1="615.168" x2="-82.2134" y2="-393.647" stroke="#4578FC" stroke-width="2"/>
<line x1="926.601" y1="588.965" x2="-82.2134" y2="-419.85" stroke="#4578FC" stroke-width="2"/>
<line x1="926.601" y1="562.762" x2="-82.2134" y2="-446.053" stroke="#4578FC" stroke-width="2"/>
<line x1="926.601" y1="536.559" x2="-82.2134" y2="-472.256" stroke="#4578FC" stroke-width="2"/>
<line x1="926.601" y1="510.356" x2="-82.2134" y2="-498.459" stroke="#4578FC" stroke-width="2"/>
<line x1="926.601" y1="484.153" x2="-82.2134" y2="-524.662" stroke="#4578FC" stroke-width="2"/>
</g>
<defs>
<linearGradient id="paint0_linear" x1="0" y1="0" x2="683.362" y2="1.05951e-06" gradientUnits="userSpaceOnUse">
<stop offset="0.375" stop-opacity="0"/>
<stop offset="1"/>
</linearGradient>
</defs>
</svg>
