<svg width="837" height="1026" viewBox="0 0 837 1026" fill="none" xmlns="http://www.w3.org/2000/svg">
<mask id="mask0" mask-type="alpha" maskUnits="userSpaceOnUse" x="0" y="0" width="837" height="1026">
<rect width="837" height="1026" transform="matrix(-1 0 0 1 837 0)" fill="url(#paint0_linear)"/>
</mask>
<g mask="url(#mask0)">
<line x1="878.293" y1="1725.71" x2="-77.9672" y2="769.447" stroke="#4578FC" stroke-width="2"/>
<line x1="878.293" y1="1700.87" x2="-77.9672" y2="744.609" stroke="#4578FC" stroke-width="2"/>
<line x1="878.293" y1="1676.03" x2="-77.9672" y2="719.771" stroke="#4578FC" stroke-width="2"/>
<line x1="878.293" y1="1651.19" x2="-77.9672" y2="694.933" stroke="#4578FC" stroke-width="2"/>
<line x1="878.293" y1="1626.35" x2="-77.9672" y2="670.095" stroke="#4578FC" stroke-width="2"/>
<line x1="878.293" y1="1601.52" x2="-77.9672" y2="645.257" stroke="#4578FC" stroke-width="2"/>
<line x1="878.293" y1="1576.68" x2="-77.9672" y2="620.419" stroke="#4578FC" stroke-width="2"/>
<line x1="878.293" y1="1551.84" x2="-77.9672" y2="595.58" stroke="#4578FC" stroke-width="2"/>
<line x1="878.293" y1="1527" x2="-77.9672" y2="570.743" stroke="#4578FC" stroke-width="2"/>
<line x1="878.293" y1="1502.16" x2="-77.9672" y2="545.905" stroke="#4578FC" stroke-width="2"/>
<line x1="878.293" y1="1477.33" x2="-77.9672" y2="521.067" stroke="#4578FC" stroke-width="2"/>
<line x1="878.293" y1="1452.49" x2="-77.9672" y2="496.228" stroke="#4578FC" stroke-width="2"/>
<line x1="878.293" y1="1427.65" x2="-77.9672" y2="471.39" stroke="#4578FC" stroke-width="2"/>
<line x1="878.293" y1="1402.81" x2="-77.9672" y2="446.552" stroke="#4578FC" stroke-width="2"/>
<line x1="878.293" y1="1377.97" x2="-77.9672" y2="421.714" stroke="#4578FC" stroke-width="2"/>
<line x1="878.293" y1="1353.14" x2="-77.9672" y2="396.876" stroke="#4578FC" stroke-width="2"/>
<line x1="878.293" y1="1328.3" x2="-77.9672" y2="372.038" stroke="#4578FC" stroke-width="2"/>
<line x1="878.293" y1="1303.46" x2="-77.9672" y2="347.2" stroke="#4578FC" stroke-width="2"/>
<line x1="878.293" y1="1278.62" x2="-77.9672" y2="322.362" stroke="#4578FC" stroke-width="2"/>
<line x1="878.293" y1="1253.78" x2="-77.9672" y2="297.524" stroke="#4578FC" stroke-width="2"/>
<line x1="878.293" y1="1228.95" x2="-77.9672" y2="272.686" stroke="#4578FC" stroke-width="2"/>
<line x1="878.293" y1="1204.11" x2="-77.9672" y2="247.848" stroke="#4578FC" stroke-width="2"/>
<line x1="878.293" y1="1179.27" x2="-77.9672" y2="223.01" stroke="#4578FC" stroke-width="2"/>
<line x1="878.293" y1="1154.43" x2="-77.9672" y2="198.172" stroke="#4578FC" stroke-width="2"/>
<line x1="878.293" y1="1129.59" x2="-77.9672" y2="173.334" stroke="#4578FC" stroke-width="2"/>
<line x1="878.293" y1="1104.76" x2="-77.9672" y2="148.496" stroke="#4578FC" stroke-width="2"/>
<line x1="878.293" y1="1079.92" x2="-77.9672" y2="123.658" stroke="#4578FC" stroke-width="2"/>
<line x1="878.293" y1="1055.08" x2="-77.9672" y2="98.8199" stroke="#4578FC" stroke-width="2"/>
<line x1="878.293" y1="1030.24" x2="-77.9672" y2="73.9819" stroke="#4578FC" stroke-width="2"/>
<line x1="878.293" y1="1005.4" x2="-77.9672" y2="49.1439" stroke="#4578FC" stroke-width="2"/>
<line x1="878.293" y1="980.566" x2="-77.9672" y2="24.3058" stroke="#4578FC" stroke-width="2"/>
<line x1="878.293" y1="955.728" x2="-77.9672" y2="-0.532243" stroke="#4578FC" stroke-width="2"/>
<line x1="878.293" y1="930.89" x2="-77.9672" y2="-25.3703" stroke="#4578FC" stroke-width="2"/>
<line x1="878.293" y1="906.052" x2="-77.9672" y2="-50.2083" stroke="#4578FC" stroke-width="2"/>
<line x1="878.293" y1="881.214" x2="-77.9672" y2="-75.0463" stroke="#4578FC" stroke-width="2"/>
<line x1="878.293" y1="856.376" x2="-77.9672" y2="-99.8844" stroke="#4578FC" stroke-width="2"/>
<line x1="878.293" y1="831.538" x2="-77.9672" y2="-124.722" stroke="#4578FC" stroke-width="2"/>
<line x1="878.293" y1="806.7" x2="-77.9672" y2="-149.56" stroke="#4578FC" stroke-width="2"/>
<line x1="878.293" y1="781.862" x2="-77.9672" y2="-174.398" stroke="#4578FC" stroke-width="2"/>
<line x1="878.293" y1="757.024" x2="-77.9672" y2="-199.236" stroke="#4578FC" stroke-width="2"/>
<line x1="878.293" y1="732.186" x2="-77.9672" y2="-224.075" stroke="#4578FC" stroke-width="2"/>
<line x1="878.293" y1="707.348" x2="-77.9672" y2="-248.913" stroke="#4578FC" stroke-width="2"/>
<line x1="878.293" y1="682.51" x2="-77.9672" y2="-273.751" stroke="#4578FC" stroke-width="2"/>
<line x1="878.293" y1="657.672" x2="-77.9672" y2="-298.589" stroke="#4578FC" stroke-width="2"/>
<line x1="878.293" y1="632.834" x2="-77.9672" y2="-323.427" stroke="#4578FC" stroke-width="2"/>
<line x1="878.293" y1="607.996" x2="-77.9672" y2="-348.265" stroke="#4578FC" stroke-width="2"/>
<line x1="878.293" y1="583.157" x2="-77.9672" y2="-373.103" stroke="#4578FC" stroke-width="2"/>
<line x1="878.293" y1="558.319" x2="-77.9672" y2="-397.941" stroke="#4578FC" stroke-width="2"/>
<line x1="878.293" y1="533.481" x2="-77.9672" y2="-422.779" stroke="#4578FC" stroke-width="2"/>
<line x1="878.293" y1="508.643" x2="-77.9672" y2="-447.617" stroke="#4578FC" stroke-width="2"/>
<line x1="878.293" y1="483.805" x2="-77.9672" y2="-472.455" stroke="#4578FC" stroke-width="2"/>
<line x1="878.293" y1="458.967" x2="-77.9672" y2="-497.293" stroke="#4578FC" stroke-width="2"/>
</g>
<mask id="mask1" mask-type="alpha" maskUnits="userSpaceOnUse" x="453" y="74" width="192" height="1377">
<rect x="453" y="74" width="191.56" height="1377" fill="url(#paint1_linear)"/>
</mask>
<g mask="url(#mask1)">
<line x1="413.132" y1="345.095" x2="666.541" y2="91.6857" stroke="#404040"/>
<line x1="413.991" y1="369.147" x2="667.4" y2="115.738" stroke="#404040"/>
<line x1="414.85" y1="393.2" x2="668.259" y2="139.791" stroke="#404040"/>
<line x1="415.709" y1="417.252" x2="669.118" y2="163.843" stroke="#404040"/>
<line x1="416.568" y1="441.305" x2="669.977" y2="187.895" stroke="#404040"/>
<line x1="417.427" y1="465.357" x2="670.836" y2="211.948" stroke="#404040"/>
<line x1="418.286" y1="489.409" x2="671.695" y2="236" stroke="#404040"/>
<line x1="419.145" y1="513.462" x2="672.554" y2="260.053" stroke="#404040"/>
<line x1="420.004" y1="537.514" x2="673.413" y2="284.105" stroke="#404040"/>
<line x1="420.863" y1="561.567" x2="674.272" y2="308.157" stroke="#404040"/>
<line x1="421.722" y1="585.619" x2="675.131" y2="332.21" stroke="#404040"/>
<line x1="422.581" y1="609.671" x2="675.99" y2="356.262" stroke="#404040"/>
<line x1="423.44" y1="633.724" x2="676.849" y2="380.315" stroke="#404040"/>
<line x1="424.299" y1="657.776" x2="677.708" y2="404.367" stroke="#404040"/>
<line x1="425.158" y1="681.829" x2="678.567" y2="428.419" stroke="#404040"/>
<line x1="426.017" y1="705.881" x2="679.426" y2="452.472" stroke="#404040"/>
<line x1="426.876" y1="729.933" x2="680.285" y2="476.524" stroke="#404040"/>
<line x1="427.735" y1="753.986" x2="681.144" y2="500.577" stroke="#404040"/>
<line x1="428.594" y1="778.038" x2="682.003" y2="524.629" stroke="#404040"/>
<line x1="429.453" y1="802.091" x2="682.862" y2="548.681" stroke="#404040"/>
<line x1="430.312" y1="826.143" x2="683.721" y2="572.734" stroke="#404040"/>
<line x1="431.171" y1="850.195" x2="684.58" y2="596.786" stroke="#404040"/>
<line x1="432.03" y1="874.248" x2="685.439" y2="620.839" stroke="#404040"/>
<line x1="432.889" y1="898.3" x2="686.298" y2="644.891" stroke="#404040"/>
<line x1="433.748" y1="922.353" x2="687.157" y2="668.943" stroke="#404040"/>
<line x1="434.607" y1="946.405" x2="688.016" y2="692.996" stroke="#404040"/>
<line x1="435.466" y1="970.457" x2="688.875" y2="717.048" stroke="#404040"/>
<line x1="436.325" y1="994.51" x2="689.734" y2="741.101" stroke="#404040"/>
<line x1="437.184" y1="1018.56" x2="690.593" y2="765.153" stroke="#404040"/>
<line x1="438.043" y1="1042.61" x2="691.452" y2="789.205" stroke="#404040"/>
<line x1="438.902" y1="1066.67" x2="692.312" y2="813.258" stroke="#404040"/>
<line x1="439.761" y1="1090.72" x2="693.17" y2="837.31" stroke="#404040"/>
<line x1="440.62" y1="1114.77" x2="694.03" y2="861.363" stroke="#404040"/>
<line x1="441.479" y1="1138.82" x2="694.888" y2="885.415" stroke="#404040"/>
<line x1="442.338" y1="1162.88" x2="695.748" y2="909.467" stroke="#404040"/>
<line x1="443.197" y1="1186.93" x2="696.606" y2="933.52" stroke="#404040"/>
<line x1="444.056" y1="1210.98" x2="697.466" y2="957.572" stroke="#404040"/>
</g>
<defs>
<linearGradient id="paint0_linear" x1="0" y1="0" x2="647.762" y2="1.00432e-06" gradientUnits="userSpaceOnUse">
<stop offset="0.375" stop-opacity="0"/>
<stop offset="1"/>
</linearGradient>
<linearGradient id="paint1_linear" x1="635.225" y1="374.139" x2="803.585" y2="542.5" gradientUnits="userSpaceOnUse">
<stop/>
<stop offset="1" stop-opacity="0"/>
</linearGradient>
</defs>
</svg>
